# AST/ASF file generated using VICON BodyLanguage
# -----------------------------------------------
:version 1.10
:name VICON
:units
  mass 1.0
  length 0.45
  angle deg
:documentation
   .ast/.asf automatically generated from VICON data using
   VICON BodyBuilder and BodyLanguage model FoxedUp or BRILLIANT.MOD
:root
   order TX TY TZ RX RY RZ
   axis XYZ
   position 0 0 0  
   orientation 0 0 0 
:bonedata
  begin
     id 1 
     name lhipjoint
     direction 0.62366 -0.717238 0.310833 
     length 2.53602 
     axis 0 0 0  XYZ
  end
  begin
     id 2 
     name lfemur
     direction 0.34202 -0.939693 0  
     length 7.40817  
     axis 0 0 20  XYZ
    dof rx ry rz
    limits (-160.0 20.0)
           (-70.0 70.0)
           (-60.0 70.0)
  end
  begin
     id 3 
     name ltibia
     direction 0.34202 -0.939693 0   
     length 7.7045   
     axis 0 0 20   XYZ
    dof rx
    limits (-10.0 170.0)
  end
  begin
     id 4 
     name lfoot
     direction 0.0673888 -0.185149 0.980397   
     length 2.09456   
     axis -90 7.62852e-016 20   XYZ
    dof rx rz
    limits (-45.0 90.0)
           (-70.0 20.0)
  end
  begin
     id 5 
     name ltoes
     direction 1.53575e-011 -4.21994e-011 1   
     length 1.05543   
     axis -90 7.62852e-016 20   XYZ
    dof rx
    limits (-90.0 20.0)
  end
  begin
     id 6 
     name rhipjoint
     direction -0.489018 -0.800347 0.346851   
     length 2.27268  
     axis 0 0 0  XYZ 
  end
  begin
     id 7 
     name rfemur
     direction -0.34202 -0.939693 0   
     length 7.55487   
     axis 0 0 -20   XYZ
    dof rx ry rz
    limits (-160.0 20.0)
           (-70.0 70.0)
           (-70.0 60.0)
  end
  begin
     id 8 
     name rtibia
     direction -0.34202 -0.939693 0   
     length 7.78969   
     axis 0 0 -20   XYZ
    dof rx
    limits (-10.0 170.0)
 end
 begin
     id 9 
     name rfoot
     direction -0.0859318 -0.236096 0.967923   
     length 2.19143  
     axis -90 -7.62852e-016 -20   XYZ
    dof rx rz
    limits (-45.0 90.0)
           (-20.0 70.0)
  end
  begin
     id 10 
     name rtoes
     direction -1.53538e-011 -4.21989e-011 1   
     length 1.09845   
     axis -90 -7.62852e-016 -20   XYZ
    dof rx
    limits (-90.0 20.0)
  end
  begin
     id 11 
     name lowerback
     direction -0.00762546 0.998978 -0.0445553   
     length 1.98161   
     axis 0 0 0   XYZ
    dof rx ry rz
    limits (-20.0 45.0)
           (-30.0 30.0)
           (-30.0 30.0)
  end
  begin
     id 12 
     name upperback
     direction 0.0422361 0.998867 -0.0219156   
     length 1.97558   
     axis 0 0 0   XYZ
    dof rx ry rz
    limits (-20.0 45.0)
           (-30.0 30.0)
           (-30.0 30.0)
  end
  begin
     id 13 
     name thorax
     direction 0.0442465 0.999021 7.47603e-005   
     length 1.97799   
     axis 0 0 0   XYZ
    dof rx ry rz
    limits (-20.0 45.0)
           (-30.0 30.0)
           (-30.0 30.0)
  end
  begin
     id 14 
     name lowerneck
     direction 0.00312169 0.984641 0.174564   
     length 1.78995   
     axis 0 0 0   XYZ
    dof rx ry rz
    limits (-20.0 45.0)
           (-30.0 30.0)
           (-30.0 30.0)
  end
  begin
     id 15 
     name upperneck
     direction -0.0383028 0.985255 -0.166749   
     length 1.83053   
     axis 0 0 0   XYZ
    dof rx ry rz
    limits (-20.0 45.0)
           (-30.0 30.0)
           (-30.0 30.0)
  end
  begin
     id 16
     name head
     direction -0.0129546 0.997059 -0.0755386  
     length 1.84088  
     axis 0 0 0   XYZ
    dof rx ry rz
    limits (-20.0 45.0)
           (-30.0 30.0)
           (-30.0 30.0)
  end
  begin
     id 17 
     name lclavicle
     direction 0.912857 0.370519 -0.171488  
     length 3.51279  
     axis 0 0 0   XYZ
    dof ry rz
    limits (-20.0 10.0)
           (0.0 20.0)
  end
  begin
     id 18 
     name lhumerus
     direction 1 -4.48962e-011 3.64361e-027   
     length 4.95663   
     axis 180 -30 -90   XYZ
    dof rx ry rz
    limits (-60.0 90.0)
           (-90.0 90.0)
           (-90.0 90.0)
  end
  begin
     id 19
     name lradius
     direction 1 -4.48974e-011 5.97202e-027   
     length 3.38177   
     axis 180 -30 -90   XYZ
    dof rx
    limits (-10.0 170.0)
  end
  begin
     id 20
     name lwrist
     direction 1 -4.4896e-011 9.83288e-027   
     length 1.69088   
     axis -9.31221e-015 90 90   XYZ
    dof ry
    limits (-180.0 0.0)
 end
  begin
     id 21 
     name lhand
     direction 1 -4.4902e-011 1.96551e-026   
     length 0.662909   
     axis -1.25475e-014 90 90   XYZ
    dof rx rz
    limits (-90.0 90.0)
           (-45.0 45.0)
  end
  begin
     id 22 
     name lfingers
     direction 1 -4.48971e-011 3.93277e-026   
     length 0.534454   
     axis -2.50945e-014 90 90   XYZ
    dof rx
    limits (0.0 90.0)
  end
  begin
     id 23
     name lthumb
     direction 0.707107 -6.34933e-011 0.707107   
     length 0.767373   
     axis -90 45 -4.80359e-014   XYZ
    dof rx rz
    limits (-45.0 45.0)
           (-45.0 45.0)
  end
  begin
     id 24 
     name rclavicle
     direction -0.900919 0.395364 -0.178976   
     length 3.40627  
     axis 0 0 0   XYZ 
    dof ry rz
    limits (-10.0 20.0)
           (-20.0 0.0)
  end
  begin
     id 25 
     name rhumerus
     direction -1 -4.48969e-011 1.03875e-027  
     length 5.08365   
     axis 180 30 90   XYZ
    dof rx ry rz
    limits (-90.0 60.0)
           (-90.0 90.0)
           (-90.0 90.0)
  end
  begin
     id 26 
     name rradius
     direction -1 -4.48951e-011 5.02733e-027   
     length 3.35984   
     axis 180 30 90   XYZ
    dof rx
    limits (-10.0 170.0)
  end
  begin
     id 27 
     name rwrist
     direction -1 -4.49011e-011 9.82828e-027   
     length 1.67992   
     axis -9.31221e-015 -90 -90   XYZ
    dof ry
    limits (-180.0 0.0)
  end
  begin
     id 28
     name rhand
     direction -1 -4.48894e-011 1.96774e-026   
     length 0.820764   
     axis -1.25475e-014 -90 -90   XYZ
    dof rx rz
    limits (-90.0 90.0)
           (-45.0 45.0)
  end
  begin
     id 29
     name rfingers
     direction -1 -4.49095e-011 3.92833e-026   
     length 0.661721   
     axis -2.50945e-014 -90 -90   XYZ
    dof rx
    limits (0.0 90.0)
  end
  begin
     id 30
     name rthumb
     direction -0.707107 -6.34881e-011 0.707107   
     length 0.950103   
     axis -90 -45 4.80359e-014   XYZ
    dof rx rz
    limits (-45.0 45.0)
           (-45.0 45.0)
  end
:hierarchy
  begin
    root lhipjoint rhipjoint lowerback
    lhipjoint lfemur
    lfemur ltibia
    ltibia lfoot
    lfoot ltoes
    rhipjoint rfemur
    rfemur rtibia
    rtibia rfoot
    rfoot rtoes
    lowerback upperback
    upperback thorax
    thorax lowerneck lclavicle rclavicle
    lowerneck upperneck
    upperneck head
    lclavicle lhumerus
    lhumerus lradius
    lradius lwrist
    lwrist lhand lthumb
    lhand lfingers
    rclavicle rhumerus
    rhumerus rradius
    rradius rwrist
    rwrist rhand rthumb
    rhand rfingers
  end

#!OML:ASF I:\golf\golf\golf 2\Subject 1\2002-09-07\Subject1.ASF
:FULLY-SPECIFIED
:DEGREES
20
root 0.393014 17.9073 -5.4212 8.87143 -4.98304 -4.83702
lowerback -8.69432 0.565849 -2.14667
upperback -2.13426 0.829886 3.56335
thorax 2.57503 0.400151 5.00846
lowerneck -19.8264 -0.469954 0.869809
upperneck 28.7284 0.137224 -3.51363
head 12.9052 -0.335145 -1.48757
rclavicle -1.52552e-014 -1.19271e-014
rhumerus -31.1549 -2.58698 -84.5948
rradius 25.3213
rwrist -6.83664
rhand -20.7151 12.8944
rfingers 7.12502
rthumb 5.64942 -17.0103
lclavicle -1.52552e-014 -1.19271e-014
lhumerus -29.882 -2.17533 90.7765
lradius 22.169
lwrist 0.326077
lhand -9.51838 31.8237
lfingers 7.12502
lthumb 16.4474 61.1465
rfemur -15.4493 3.77203 19.8456
rtibia 29.0379
rfoot -15.7272 -8.10681
rtoes -2.70596
lfemur -14.1463 1.10484 -13.6901
ltibia 29.2139
lfoot -16.9657 9.15146
ltoes -13.9666
21
root 0.393268 17.9072 -5.42154 8.84753 -4.98612 -4.85945
lowerback -8.66277 0.582452 -2.10587
upperback -2.12029 0.847898 3.56775
thorax 2.57079 0.409204 4.99115
lowerneck -19.8236 -0.477777 0.868219
upperneck 28.7246 0.134958 -3.53986
head 12.903 -0.339871 -1.49774
rclavicle -2.83843e-014 -1.5704e-014
rhumerus -31.1702 -2.64791 -84.5679
rradius 25.2848
rwrist -6.84307
rhand -20.823 12.8092
rfingers 7.12502
rthumb 5.54529 -17.0982
lclavicle -2.83843e-014 -1.5704e-014
lhumerus -29.8608 -2.18389 90.7884
lradius 22.1345
lwrist 0.299884
lhand -9.58289 31.6495
lfingers 7.12502
lthumb 16.3853 60.9774
rfemur -15.4221 3.74862 19.8729
rtibia 29.0473
rfoot -15.7704 -8.13981
rtoes -3.16632
lfemur -14.0967 1.15359 -13.6677
ltibia 29.186
lfoot -17.0324 9.09915
ltoes -13.6345
22
root 0.393455 17.9063 -5.423 8.84116 -5.02284 -4.81202
lowerback -8.65229 0.597292 -2.14749
upperback -2.11262 0.871692 3.5523
thorax 2.57009 0.420808 5.00103
lowerneck -19.7879 -0.468761 0.90626
upperneck 28.6936 0.14824 -3.58383
head 12.8832 -0.335459 -1.51814
rclavicle 5.92161e-015 2.80286e-014
rhumerus -31.177 -2.73494 -84.541
rradius 25.2502
rwrist -6.8828
rhand -20.8741 12.8871
rfingers 7.12502
rthumb 5.4959 -17.0217
lclavicle 5.92161e-015 2.80286e-014
lhumerus -29.8991 -2.16635 90.7643
lradius 22.192
lwrist 0.0955464
lhand -9.42483 31.5458
lfingers 7.12502
lthumb 16.5375 60.8611
rfemur -15.4197 3.65229 19.8404
rtibia 29.0505
rfoot -15.6784 -8.24605
rtoes -4.79344
lfemur -14.0782 1.20692 -13.7288
ltibia 29.1602
lfoot -17.0347 9.10397
ltoes -13.3924
23
root 0.393209 17.9071 -5.42394 8.83855 -5.03569 -4.69287
lowerback -8.65121 0.596832 -2.26692
upperback -2.11389 0.882724 3.52056
thorax 2.56556 0.425924 5.03694
lowerneck -19.7658 -0.471497 0.88557
upperneck 28.7102 0.146706 -3.56743
head 12.8854 -0.336052 -1.5086
rclavicle 5.02863e-015 7.95139e-016
rhumerus -31.1996 -2.83834 -84.4855
rradius 25.1956
rwrist -6.89506
rhand -20.7905 13.0205
rfingers 7.12502
rthumb 5.57667 -16.8861
lclavicle 5.02863e-015 7.95139e-016
lhumerus -29.942 -2.18216 90.7592
lradius 22.2581
lwrist -0.0420071
lhand -9.26974 31.4249
lfingers 7.12502
lthumb 16.6868 60.7276
rfemur -15.4307 3.65887 19.705
rtibia 29.0437
rfoot -15.6261 -8.20703
rtoes -4.56267
lfemur -14.1017 1.14421 -13.857
ltibia 29.1625
lfoot -16.955 9.14982
ltoes -13.5942
24
root 0.39408 17.9092 -5.42535 8.88511 -5.03831 -4.70168
lowerback -8.66886 0.615246 -2.23357
upperback -2.12328 0.90475 3.51445
thorax 2.56399 0.437285 5.01401
lowerneck -19.8083 -0.473446 0.852562
upperneck 28.7823 0.148347 -3.53914
head 12.924 -0.335598 -1.49351
rclavicle 1.39988e-014 2.74323e-014
rhumerus -31.2065 -2.91701 -84.4336
rradius 25.1436
rwrist -6.93445
rhand -20.6563 13.098
rfingers 7.12502
rthumb 5.70623 -16.8052
lclavicle 1.39988e-014 2.74323e-014
lhumerus -29.9277 -2.24951 90.7895
lradius 22.2589
lwrist 0.00591424
lhand -9.30831 31.2905
lfingers 7.12502
lthumb 16.6496 60.5964
rfemur -15.4926 3.75512 19.6868
rtibia 29.0323
rfoot -15.6704 -8.13119
rtoes -3.45318
lfemur -14.1751 1.06014 -13.8436
ltibia 29.1762
lfoot -16.8977 9.20674
ltoes -13.7379
25
root 0.396681 17.9096 -5.42782 8.95556 -5.04987 -4.8039
lowerback -8.67931 0.643945 -2.08514
upperback -2.14163 0.929703 3.52795
thorax 2.55055 0.450981 4.94597
lowerneck -19.8468 -0.455932 0.865619
upperneck 28.8296 0.17424 -3.55021
head 12.9523 -0.324658 -1.49702
rclavicle 1.88504e-014 6.16232e-015
rhumerus -31.2039 -3.0343 -84.3664
rradius 25.0988
rwrist -6.77403
rhand -20.5253 13.1605
rfingers 7.12502
rthumb 5.8327 -16.7393
lclavicle 1.88504e-014 6.16232e-015
lhumerus -29.8958 -2.30216 90.8143
lradius 22.2588
lwrist 0.0737686
lhand -9.30109 31.32
lfingers 7.12502
lthumb 16.6566 60.6253
rfemur -15.5676 3.73217 19.7826
rtibia 29.0101
rfoot -15.6693 -8.10022
rtoes -3.69587
lfemur -14.2546 1.11621 -13.7536
ltibia 29.1896
lfoot -16.9368 9.21031
ltoes -13.6871
26
root 0.39816 17.9092 -5.42865 8.95777 -5.05809 -4.83219
lowerback -8.65867 0.655647 -2.03154
upperback -2.14052 0.940287 3.5331
thorax 2.54005 0.456696 4.92139
lowerneck -19.838 -0.44756 0.851556
upperneck 28.8314 0.190772 -3.54794
head 12.9517 -0.318555 -1.49091
rclavicle 4.3655e-015 -3.1408e-014
rhumerus -31.2292 -3.1331 -84.3038
rradius 25.0707
rwrist -6.59945
rhand -20.4249 13.1726
rfingers 7.12502
rthumb 5.92962 -16.7244
lclavicle 4.3655e-015 -3.1408e-014
lhumerus -29.8825 -2.34738 90.8484
lradius 22.2505
lwrist 0.267663
lhand -9.49226 31.2299
lfingers 7.12502
lthumb 16.4725 60.5506
rfemur -15.5611 3.67733 19.806
rtibia 28.9823
rfoot -15.6981 -8.05107
rtoes -4.07426
lfemur -14.2627 1.19843 -13.7425
ltibia 29.2159
lfoot -16.9699 9.20466
ltoes -13.7906
